<?xml version="1.0" standalone="no"?>
<!DOCTYPE svg PUBLIC "-//W3C//DTD SVG 20010904//EN"
 "http://www.w3.org/TR/2001/REC-SVG-20010904/DTD/svg10.dtd">
<svg version="1.0" xmlns="http://www.w3.org/2000/svg"
 width="512.000000pt" height="512.000000pt" viewBox="0 0 512.000000 512.000000"
 preserveAspectRatio="xMidYMid meet">
<metadata>
Created by potrace 1.16, written by Peter Selinger 2001-2019
</metadata>
<g transform="translate(0.000000,512.000000) scale(0.100000,-0.100000)"
fill="#000000" stroke="none">
<path d="M1375 4646 c-147 -37 -262 -145 -307 -289 l-23 -72 0 -1888 0 -1889
28 -24 28 -24 1465 0 1465 0 24 25 25 24 0 1701 0 1701 -24 22 c-13 12 -41 36
-63 53 -58 47 -105 142 -110 223 -8 105 21 168 115 259 67 65 76 78 76 109 0
26 -7 42 -28 59 l-27 24 -1297 -1 c-997 -1 -1309 -4 -1347 -13z m2396 -188
c-11 -18 -25 -52 -32 -75 l-12 -43 -368 0 c-248 0 -376 -4 -392 -11 -49 -22
-60 -83 -23 -126 l24 -28 375 -3 375 -3 6 -43 c4 -23 20 -70 36 -104 l29 -62
-1168 0 c-1303 0 -1230 -4 -1314 70 -144 127 -115 349 55 434 l52 26 1188 0
1187 0 -18 -32z m-2476 -618 l70 -35 1273 -3 1272 -2 0 -1585 0 -1585 -1350 0
-1350 0 0 1626 c0 894 3 1624 8 1622 4 -2 39 -19 77 -38z"/>
<path d="M2470 3489 c-164 -17 -318 -94 -442 -221 -132 -134 -208 -322 -208
-513 0 -336 219 -624 546 -717 62 -17 104 -22 194 -22 140 0 211 17 340 81 79
39 109 60 180 132 98 99 139 165 183 288 30 84 32 95 31 238 0 137 -3 157 -28
230 -117 341 -436 543 -796 504z m211 -173 c93 -20 197 -76 271 -145 192 -179
237 -446 116 -685 -43 -85 -163 -203 -248 -244 -221 -107 -469 -74 -642 86
-248 229 -259 589 -25 827 144 145 331 202 528 161z"/>
<path d="M1495 1765 c-49 -49 -23 -127 47 -140 18 -3 507 -4 1086 -3 l1054 3
24 28 c37 43 26 104 -23 126 -17 8 -331 11 -1094 11 l-1070 0 -24 -25z"/>
<path d="M1495 1455 c-49 -49 -23 -127 47 -140 18 -3 507 -4 1086 -3 l1054 3
24 28 c37 43 26 104 -23 126 -17 8 -331 11 -1094 11 l-1070 0 -24 -25z"/>
<path d="M1513 1160 c-27 -11 -43 -40 -43 -79 0 -38 28 -68 72 -76 18 -3 507
-4 1086 -3 l1054 3 24 28 c37 43 26 104 -23 126 -30 14 -2136 15 -2170 1z"/>
</g>
</svg>
