<?xml version="1.0" standalone="no"?>
<!DOCTYPE svg PUBLIC "-//W3C//DTD SVG 20010904//EN"
 "http://www.w3.org/TR/2001/REC-SVG-20010904/DTD/svg10.dtd">
<svg version="1.0" xmlns="http://www.w3.org/2000/svg"
 width="512.000000pt" height="512.000000pt" viewBox="0 0 512.000000 512.000000"
 preserveAspectRatio="xMidYMid meet">
<metadata>
Created by potrace 1.16, written by Peter Selinger 2001-2019
</metadata>
<g transform="translate(0.000000,512.000000) scale(0.100000,-0.100000)"
fill="#000000" stroke="none">
<path d="M1638 4350 c-307 -28 -587 -191 -702 -409 -157 -299 -28 -629 316
-810 l57 -29 -31 -13 c-56 -23 -173 -105 -228 -159 -113 -114 -169 -233 -177
-376 -7 -110 6 -172 54 -272 59 -121 216 -270 341 -321 18 -8 32 -16 32 -20 0
-4 -21 -17 -47 -30 -127 -61 -265 -191 -322 -303 -43 -85 -61 -158 -61 -248 0
-289 223 -530 590 -637 l95 -28 1473 -3 1472 -2 0 1835 0 1835 -1387 -1 c-764
-1 -1427 -5 -1475 -9z m162 -665 l0 -495 -44 0 c-25 0 -80 5 -123 11 -427 58
-684 359 -545 641 93 190 369 332 655 337 l57 1 0 -495z m660 -217 c0 -433 -4
-707 -10 -698 -206 340 -257 420 -265 420 -5 -1 -56 -90 -112 -198 l-103 -197
0 693 0 692 245 0 245 0 0 -712z m1860 602 l0 -110 -705 0 -706 0 -24 -25
c-31 -30 -32 -73 -4 -109 l20 -26 710 0 709 0 0 -75 0 -75 -585 0 -586 0 -24
-25 c-32 -31 -33 -80 -3 -112 l21 -23 589 0 588 0 0 -150 0 -150 -850 0 -850
0 0 495 0 495 850 0 850 0 0 -110z m-2518 -1522 l3 -463 194 383 c154 305 196
381 206 370 7 -7 102 -161 211 -343 l199 -330 3 423 2 422 850 0 850 0 0 -105
0 -105 -695 0 c-737 0 -741 0 -759 -45 -10 -26 -6 -69 7 -86 30 -39 36 -39
751 -39 l696 0 0 -70 0 -70 -591 -2 -591 -3 -19 -24 c-24 -30 -24 -82 0 -112
l19 -24 591 -3 591 -2 0 -145 0 -145 -1362 2 -1363 3 -80 22 c-44 13 -123 44
-175 70 -114 57 -209 145 -255 238 -27 54 -30 69 -30 155 0 84 3 102 28 152
95 194 357 335 629 337 l88 1 2 -462z m2518 -843 l0 -145 -689 0 c-453 0 -699
-4 -717 -10 -15 -6 -33 -18 -40 -28 -19 -25 -17 -76 5 -103 l19 -24 711 -3
711 -2 0 -70 0 -70 -569 0 c-586 0 -621 -2 -641 -40 -18 -33 -11 -79 15 -105
l24 -25 586 0 585 0 0 -110 0 -110 -1262 0 c-742 0 -1308 4 -1373 10 -217 19
-381 86 -502 206 -102 100 -128 158 -128 284 0 85 3 101 29 150 89 169 268
284 506 325 58 10 372 13 1403 14 l1327 1 0 -145z"/>
</g>
</svg>
