<?xml version="1.0" standalone="no"?>
<!DOCTYPE svg PUBLIC "-//W3C//DTD SVG 20010904//EN"
 "http://www.w3.org/TR/2001/REC-SVG-20010904/DTD/svg10.dtd">
<svg version="1.0" xmlns="http://www.w3.org/2000/svg"
 width="512.000000pt" height="512.000000pt" viewBox="0 0 512.000000 512.000000"
 preserveAspectRatio="xMidYMid meet">

<g transform="translate(0.000000,512.000000) scale(0.100000,-0.100000)"
fill="#000000" stroke="none">
<path d="M2435 5113 c-212 -34 -395 -128 -540 -278 -267 -276 -337 -686 -176
-1031 21 -45 54 -104 72 -130 90 -131 263 -274 396 -328 l58 -24 3 -181 2
-181 -427 0 c-468 0 -501 -3 -611 -59 -121 -61 -225 -184 -262 -311 -12 -38
-42 -258 -75 -540 -31 -261 -83 -691 -117 -955 -33 -264 -61 -518 -61 -565 -1
-252 171 -469 411 -519 37 -8 473 -11 1445 -11 1192 0 1401 2 1455 15 204 48
381 236 412 437 12 79 22 -17 -121 1163 -68 569 -117 935 -129 975 -51 174
-220 326 -399 360 -31 6 -233 10 -477 10 l-424 0 0 179 0 178 63 27 c156 68
333 223 418 367 143 241 174 515 88 774 -101 302 -337 521 -654 607 -69 19
-285 32 -350 21z m273 -169 c294 -60 521 -277 598 -569 26 -102 25 -275 -4
-378 -63 -222 -205 -394 -407 -492 -118 -58 -204 -78 -335 -78 -131 0 -217 20
-335 78 -487 237 -582 886 -182 1251 184 168 427 237 665 188z m-148 -1677
c41 0 92 3 113 7 l37 7 0 -780 0 -780 -47 -7 c-61 -10 -145 -10 -205 0 l-48 7
0 780 0 780 38 -7 c20 -4 71 -7 112 -7z m-310 -1039 l0 -571 43 -42 c59 -56
111 -70 267 -70 156 0 208 14 267 70 l43 42 0 572 0 572 448 -3 447 -3 55 -26
c98 -46 175 -133 199 -224 12 -49 181 -1464 181 -1521 0 -23 -9 -71 -20 -107
-26 -84 -96 -164 -178 -204 l-57 -28 -1365 -3 c-1361 -2 -1365 -2 -1434 19
-131 39 -226 169 -226 307 0 89 169 1491 186 1543 38 119 145 215 269 242 11
3 212 5 448 6 l427 1 0 -572z m-1210 -1653 c112 -57 60 -55 1525 -55 1465 0
1413 -2 1525 55 27 14 74 45 104 69 l55 45 6 -54 c4 -30 6 -89 4 -132 -7 -153
-102 -282 -238 -323 -65 -20 -88 -20 -1481 -18 l-1415 3 -55 26 c-68 33 -142
107 -178 179 -23 47 -27 68 -27 140 0 47 4 106 8 132 l8 47 55 -44 c30 -25 77
-56 104 -70z"/>
<path d="M3032 4247 c-14 -15 -22 -36 -22 -58 0 -19 -7 -63 -15 -98 -45 -188
-192 -317 -390 -343 -72 -9 -89 -15 -105 -36 -37 -46 -22 -102 31 -121 33 -11
142 -1 209 21 239 76 419 308 424 546 1 66 -1 76 -23 93 -32 26 -82 25 -109
-4z"/>
<path d="M3523 1576 c-92 -30 -176 -107 -220 -201 -23 -50 -27 -73 -27 -140 1
-111 29 -182 103 -256 74 -74 145 -102 256 -103 105 0 182 33 255 110 76 81
95 129 95 244 0 82 -4 103 -26 150 -39 81 -90 135 -165 171 -55 27 -80 33
-147 36 -51 2 -98 -2 -124 -11z m192 -165 c178 -80 138 -346 -57 -377 -109
-18 -228 87 -228 202 0 33 21 86 48 123 49 66 156 89 237 52z"/>
</g>
</svg>
