<?xml version="1.0" standalone="no"?>
<!DOCTYPE svg PUBLIC "-//W3C//DTD SVG 20010904//EN"
 "http://www.w3.org/TR/2001/REC-SVG-20010904/DTD/svg10.dtd">
<svg version="1.0" xmlns="http://www.w3.org/2000/svg"
 width="512.000000pt" height="512.000000pt" viewBox="0 0 512.000000 512.000000"
 preserveAspectRatio="xMidYMid meet">

<g transform="translate(0.000000,512.000000) scale(0.100000,-0.100000)"
fill="#000000" stroke="none">
<path d="M2350 5109 c-745 -84 -1360 -640 -1519 -1372 -11 -49 -21 -90 -23
-91 -2 -1 -23 -11 -46 -21 -113 -49 -161 -188 -101 -293 18 -32 18 -33 -4 -75
-29 -56 -29 -141 1 -191 l22 -36 -23 -43 c-51 -97 -13 -222 83 -275 l50 -27 0
-518 0 -518 25 -24 c31 -32 69 -32 100 0 l25 24 0 516 0 515 185 0 185 0 0
-1080 0 -1080 -129 0 c-141 0 -168 9 -215 73 -20 27 -21 42 -26 424 l-5 395
-24 19 c-32 26 -67 24 -97 -6 l-25 -25 3 -402 c3 -398 3 -404 26 -450 30 -60
90 -120 150 -150 43 -21 62 -23 243 -26 l196 -3 7 -81 c9 -103 36 -168 93
-218 104 -91 248 -92 352 -3 62 52 91 117 98 219 l6 84 582 0 582 0 6 -84 c7
-103 33 -162 94 -215 105 -93 251 -94 356 -1 57 50 84 115 93 219 l7 81 183 0
c161 0 190 3 239 21 65 24 133 88 167 156 l23 48 5 1044 5 1045 27 7 c125 33
190 181 130 296 l-22 42 22 37 c30 50 30 135 1 191 -22 42 -22 43 -4 75 42 73
34 166 -21 232 -34 41 -95 76 -132 76 -18 0 -27 6 -31 23 -50 230 -78 313
-161 482 -78 160 -108 198 -153 198 -40 0 -75 -32 -74 -70 0 -15 21 -64 46
-107 87 -149 163 -350 182 -479 l7 -47 -187 2 -188 3 -32 95 c-64 193 -147
332 -286 475 -50 52 -131 122 -181 157 -85 60 -89 64 -83 93 19 92 25 151 25
253 0 61 3 112 7 112 3 0 49 -23 102 -51 127 -67 235 -146 341 -246 48 -46 98
-87 111 -91 60 -23 114 38 89 99 -18 43 -193 196 -319 280 -348 231 -766 334
-1171 288z m490 -168 c58 -12 125 -27 150 -35 l45 -13 3 -134 c2 -74 -2 -163
-8 -199 -40 -232 -250 -410 -485 -410 -234 0 -446 178 -484 407 -7 37 -10 128
-9 202 l3 134 45 13 c51 16 234 51 295 58 94 10 343 -3 445 -23z m-937 -263
c3 -87 11 -173 19 -198 l14 -45 -80 -55 c-97 -65 -243 -209 -310 -304 -68 -95
-138 -237 -172 -345 l-28 -91 -188 0 -188 0 0 23 c0 66 76 289 146 430 100
201 319 455 502 581 72 51 256 155 273 156 4 0 9 -69 12 -152z m144 -443 c77
-99 208 -182 341 -216 237 -60 507 28 653 215 24 31 49 56 56 56 6 0 47 -26
90 -58 143 -107 265 -256 337 -414 32 -69 72 -187 64 -192 -109 -69 -145 -174
-98 -284 l20 -47 -20 -40 c-27 -52 -27 -133 1 -186 l20 -40 -20 -43 c-50 -103
0 -245 100 -287 29 -11 29 -12 29 -95 l0 -84 -114 0 -113 0 -6 89 c-8 119 -30
208 -81 316 -151 320 -501 512 -848 466 -283 -38 -524 -212 -644 -466 -51
-108 -73 -197 -81 -316 l-6 -89 -129 0 -129 0 3 81 3 81 39 13 c113 39 169
180 115 291 l-20 43 20 40 c28 53 28 134 1 186 l-20 40 21 49 c44 103 9 216
-85 271 l-45 26 26 72 c76 211 212 396 388 525 39 29 75 52 80 52 6 0 29 -25
52 -55z m-562 -761 c24 -25 16 -76 -15 -91 -18 -9 -106 -13 -333 -13 l-308 0
-24 25 c-29 28 -31 42 -9 73 15 22 16 22 344 22 290 0 330 -2 345 -16z m2839
-6 c22 -31 20 -45 -9 -73 l-24 -25 -308 0 c-341 0 -356 3 -361 56 -6 64 -7 64
358 64 328 0 329 0 344 -22z m-1593 -243 c207 -54 388 -216 463 -415 27 -74
49 -198 44 -250 l-3 -35 -231 -3 -232 -2 -4 65 c-5 79 -41 137 -107 172 -94
49 -215 21 -276 -65 -23 -34 -30 -56 -33 -107 l-4 -65 -232 2 -231 3 2 85 c6
286 240 562 523 619 30 6 64 13 75 15 37 9 182 -3 246 -19z m-1247 -21 c24
-23 20 -70 -6 -88 -19 -14 -68 -16 -336 -16 l-313 0 -25 25 c-19 19 -23 31
-18 48 14 48 8 47 355 47 284 0 330 -2 343 -16z m2834 4 c24 -31 23 -57 -2
-83 l-25 -25 -313 0 c-347 0 -358 2 -358 60 0 60 -1 60 359 60 251 0 331 -3
339 -12z m-2836 -275 c25 -23 23 -68 -4 -87 -19 -14 -68 -16 -336 -16 l-313 0
-25 25 c-18 19 -23 31 -19 48 14 46 20 47 359 47 283 0 321 -2 338 -17z m2830
5 c30 -24 31 -56 4 -83 l-25 -25 -313 0 c-268 0 -317 2 -336 16 -26 18 -29 60
-5 86 15 17 39 18 338 18 242 0 325 -3 337 -12z m-164 -1287 c-3 -1027 -3
-1030 -24 -1058 -47 -64 -74 -73 -215 -73 l-129 0 0 1080 0 1080 185 0 185 0
-2 -1029z m-1544 960 c11 -12 16 -31 14 -53 -3 -32 -4 -33 -52 -36 -53 -3 -66
6 -66 47 0 54 68 82 104 42z m1016 -1166 l0 -925 -1075 0 -1075 0 0 925 0 925
1075 0 1075 0 0 -925z m-1816 -1146 c-2 -77 -13 -103 -57 -129 -38 -24 -78
-25 -116 -6 -46 24 -61 57 -61 136 l0 71 118 -3 117 -3 -1 -66z m1716 -3 c0
-67 -3 -77 -28 -104 -53 -56 -146 -50 -187 12 -17 26 -32 125 -22 150 5 13 26
16 122 16 l115 0 0 -74z"/>
<path d="M1862 3937 c-21 -22 -22 -32 -22 -209 0 -168 2 -188 19 -209 l19 -24
667 0 667 0 19 24 c17 21 19 41 19 210 0 183 -1 188 -23 209 l-23 22 -660 0
-661 0 -21 -23z m288 -212 l0 -85 -80 0 -80 0 0 85 0 85 80 0 80 0 0 -85z
m320 0 l0 -86 -82 3 -83 3 -3 83 -3 82 86 0 85 0 0 -85z m318 3 l-3 -83 -82
-3 -83 -3 0 86 0 85 85 0 86 0 -3 -82z m312 -3 l0 -85 -80 0 -80 0 0 85 0 85
80 0 80 0 0 -85z"/>
<path d="M1770 2173 c-8 -3 -23 -12 -32 -21 -17 -14 -18 -60 -18 -704 0 -675
0 -688 20 -708 20 -20 33 -20 805 -20 772 0 785 0 805 20 20 20 20 33 20 708
0 688 0 689 -21 708 -20 18 -49 19 -793 21 -424 1 -778 -1 -786 -4z m530 -151
c0 -4 -97 -104 -215 -222 l-215 -215 0 223 0 222 215 0 c118 0 215 -3 215 -8z
m450 0 c0 -4 -198 -205 -440 -447 l-440 -440 0 120 0 120 327 327 328 328 112
0 c62 0 113 -3 113 -8z m-115 -572 l-580 -580 -92 0 -93 0 0 28 c0 23 89 116
553 580 l552 552 120 0 120 0 -580 -580z m233 -227 l-353 -353 -120 0 -120 0
470 470 470 470 3 -117 3 -117 -353 -353z m352 -108 l0 -245 -247 0 -248 0
245 245 c135 135 246 245 247 245 2 0 3 -110 3 -245z"/>
</g>
</svg>
