<?xml version="1.0" standalone="no"?>
<!DOCTYPE svg PUBLIC "-//W3C//DTD SVG 20010904//EN"
 "http://www.w3.org/TR/2001/REC-SVG-20010904/DTD/svg10.dtd">
<svg version="1.0" xmlns="http://www.w3.org/2000/svg"
 width="512.000000pt" height="512.000000pt" viewBox="0 0 512.000000 512.000000"
 preserveAspectRatio="xMidYMid meet">

<g transform="translate(0.000000,512.000000) scale(0.100000,-0.100000)"
fill="#000000" stroke="none">
<path d="M2470 4790 c-377 -46 -653 -309 -719 -684 -7 -39 -11 -361 -11 -915
0 -824 1 -859 20 -941 103 -433 540 -711 975 -621 118 24 198 58 300 125 170
114 289 281 347 491 22 79 22 90 26 880 4 963 1 1010 -88 1202 -66 142 -148
240 -271 323 -161 110 -385 164 -579 140z m238 -165 c42 -9 115 -34 162 -57
69 -33 101 -57 170 -127 139 -141 203 -291 204 -486 l1 -100 -173 -5 c-157 -5
-175 -7 -188 -24 -16 -23 -18 -69 -4 -96 16 -31 67 -40 222 -40 l149 0 -3
-107 -3 -108 -173 -5 c-157 -5 -175 -7 -188 -24 -16 -23 -18 -69 -4 -96 16
-31 67 -40 221 -40 l149 0 0 -105 0 -105 -149 0 c-154 0 -205 -9 -221 -40 -14
-27 -12 -73 4 -96 13 -17 31 -19 188 -24 l173 -5 3 -107 3 -108 -149 0 c-155
0 -206 -9 -222 -40 -14 -27 -12 -73 4 -96 13 -17 31 -19 188 -24 l173 -5 -1
-92 c-5 -308 -173 -556 -441 -648 -103 -36 -216 -48 -316 -35 -164 22 -286 81
-397 191 -121 120 -187 285 -192 482 l-3 102 175 6 c96 3 176 6 178 7 15 9 30
75 23 94 -18 49 -34 53 -208 56 l-163 4 0 109 0 109 161 0 c88 0 169 4 179 10
26 14 42 65 30 96 -17 43 -63 54 -225 54 l-145 0 0 105 0 105 144 0 c79 0 157
5 175 11 44 15 67 61 50 100 -6 17 -20 34 -30 39 -10 6 -90 10 -178 10 l-161
0 0 110 0 110 145 0 c164 0 208 11 226 56 10 29 -2 77 -25 92 -6 4 -87 9 -181
12 l-170 5 1 100 c2 121 21 202 77 315 59 121 178 241 297 298 143 69 285 87
438 57z"/>
<path d="M884 4320 c-30 -12 -123 -128 -173 -215 -128 -223 -157 -515 -76
-760 49 -147 195 -367 257 -388 53 -17 119 43 103 93 -4 11 -31 48 -61 83 -67
75 -146 233 -168 334 -20 92 -20 254 0 346 21 98 101 259 162 327 61 69 74 93
66 124 -11 46 -66 75 -110 56z"/>
<path d="M4170 4317 c-14 -7 -31 -25 -39 -41 -17 -36 -4 -63 69 -150 60 -72
111 -167 142 -266 20 -64 23 -96 23 -220 0 -124 -3 -156 -23 -220 -31 -99 -82
-194 -142 -266 -69 -82 -84 -112 -71 -146 16 -41 55 -63 94 -52 68 20 213 238
265 400 47 146 54 371 16 514 -39 146 -119 296 -216 402 -47 52 -80 65 -118
45z"/>
<path d="M1158 4130 c-29 -17 -110 -133 -144 -205 -38 -81 -64 -198 -64 -285
0 -167 75 -354 186 -465 43 -43 84 -46 119 -10 37 36 33 74 -15 131 -172 208
-172 480 0 688 49 60 54 104 14 135 -28 22 -68 27 -96 11z"/>
<path d="M3866 4119 c-40 -32 -36 -75 15 -135 171 -205 171 -483 0 -688 -51
-60 -55 -103 -15 -135 56 -44 108 -17 184 94 159 232 159 538 0 770 -76 111
-128 138 -184 94z"/>
<path d="M1175 2688 c-45 -26 -46 -31 -41 -273 3 -187 8 -249 26 -330 94 -434
380 -799 777 -991 149 -72 304 -116 496 -139 l47 -6 0 -235 0 -234 -344 0
c-332 0 -344 -1 -370 -21 -37 -29 -37 -89 0 -118 26 -21 33 -21 791 -21 l764
0 24 25 c16 15 25 36 25 55 0 19 -9 40 -25 55 l-24 25 -341 0 -340 0 0 234 0
235 48 6 c198 25 348 67 497 140 399 194 680 556 777 1000 15 67 21 145 25
307 3 119 3 228 -1 242 -10 38 -65 63 -104 47 -46 -19 -52 -45 -52 -234 0
-201 -16 -324 -61 -463 -145 -454 -530 -787 -1003 -869 -113 -19 -299 -19
-412 0 -269 47 -495 164 -690 359 -182 182 -292 383 -350 641 -11 47 -18 143
-21 294 l-5 225 -28 28 c-30 30 -53 34 -85 16z"/>
</g>
</svg>
