<?xml version="1.0" standalone="no"?>
<!DOCTYPE svg PUBLIC "-//W3C//DTD SVG 20010904//EN"
 "http://www.w3.org/TR/2001/REC-SVG-20010904/DTD/svg10.dtd">
<svg version="1.0" xmlns="http://www.w3.org/2000/svg"
 width="512.000000pt" height="512.000000pt" viewBox="0 0 512.000000 512.000000"
 preserveAspectRatio="xMidYMid meet">

<g transform="translate(0.000000,512.000000) scale(0.100000,-0.100000)"
fill="#000000" stroke="none">
<path d="M845 5106 c-94 -29 -160 -84 -206 -168 l-34 -63 0 -1290 0 -1290 25
-50 c31 -64 101 -134 165 -165 l50 -25 433 -3 432 -3 0 -129 0 -130 -767 -2
c-862 -3 -793 3 -873 -79 -71 -74 -71 -71 -68 -660 3 -515 3 -525 25 -564 40
-75 113 -128 192 -141 l41 -7 0 -71 c0 -122 63 -215 169 -251 39 -13 286 -15
2131 -15 1845 0 2092 2 2131 15 106 36 169 129 169 251 l0 71 41 7 c80 13 154
68 195 146 18 33 19 68 19 575 0 514 -1 542 -19 579 -23 46 -74 99 -119 123
-30 17 -88 18 -799 21 l-768 2 0 130 0 129 433 3 432 3 50 25 c64 31 134 101
165 165 l25 50 0 1290 0 1290 -34 63 c-38 70 -92 120 -167 154 l-49 23 -1690
2 c-1339 1 -1698 -1 -1730 -11z m3412 -177 c29 -14 52 -35 68 -63 l25 -43 0
-1239 0 -1239 -23 -40 c-13 -22 -40 -49 -62 -62 l-40 -23 -1665 0 -1665 0 -40
23 c-22 13 -49 40 -62 62 l-23 40 0 1239 0 1239 25 42 c16 28 39 50 67 64 l43
21 1654 0 1655 0 43 -21z m-1017 -3009 l0 -130 -680 0 -680 0 0 130 0 130 680
0 680 0 0 -130z m1671 -313 c38 -29 39 -44 39 -546 l0 -490 -24 -28 -24 -28
-2342 0 -2342 0 -24 28 -24 28 0 490 c0 502 1 517 39 546 23 18 4679 18 4702
0z m-221 -1321 c0 -69 -6 -83 -41 -101 -42 -22 -4136 -22 -4178 0 -35 18 -41
32 -41 101 l0 54 2130 0 2130 0 0 -54z"/>
<path d="M2090 4773 c-398 -14 -769 -45 -831 -69 -125 -49 -223 -152 -259
-273 -85 -290 -74 -1544 15 -1740 52 -113 155 -202 272 -234 188 -52 1266 -85
1873 -57 482 22 669 44 755 87 93 47 179 155 208 260 76 278 74 1421 -3 1683
-42 144 -164 257 -312 289 -185 41 -1200 73 -1718 54z m1230 -183 c368 -23
463 -35 519 -66 94 -51 122 -108 140 -284 42 -427 41 -944 -4 -1338 -16 -141
-39 -193 -107 -242 -56 -41 -84 -47 -313 -65 -623 -48 -1367 -48 -1990 0 -229
18 -257 24 -313 65 -68 49 -91 101 -107 242 -45 394 -46 911 -4 1338 18 176
46 233 139 284 43 24 72 30 193 41 126 12 409 29 642 39 161 7 1035 -3 1205
-14z"/>
<path d="M1434 4287 c-58 -57 -64 -67 -64 -103 0 -52 31 -84 82 -84 31 0 46 9
97 59 33 32 63 70 66 84 14 55 -27 107 -82 107 -28 0 -45 -11 -99 -63z"/>
<path d="M1648 4072 c-266 -265 -278 -279 -278 -315 0 -49 36 -87 82 -87 29 0
60 28 312 279 266 265 280 282 280 317 0 46 -39 84 -87 84 -28 0 -62 -31 -309
-278z"/>
<path d="M1912 3828 c-296 -296 -530 -537 -538 -555 -24 -55 15 -113 75 -113
34 0 63 27 574 538 395 395 537 543 537 560 0 30 -25 78 -45 86 -9 3 -31 6
-48 6 -28 0 -86 -54 -555 -522z"/>
<path d="M369 1421 c-38 -38 -38 -74 1 -113 l30 -30 121 4 c113 3 122 5 140
27 27 33 25 86 -6 116 -23 24 -30 25 -140 25 -115 0 -117 0 -146 -29z"/>
<path d="M3955 1425 c-17 -16 -25 -35 -25 -60 0 -25 8 -44 25 -60 l24 -25 371
0 372 0 29 29 c17 18 29 40 29 56 0 16 -12 38 -29 56 l-29 29 -372 0 -371 0
-24 -25z"/>
<path d="M382 1013 c-29 -12 -42 -62 -42 -167 0 -95 2 -107 23 -130 34 -40 77
-43 115 -11 l32 27 0 119 c0 114 -1 121 -25 144 -23 24 -69 32 -103 18z"/>
<path d="M710 1000 c-28 -28 -32 -55 -28 -169 3 -112 15 -135 74 -147 24 -4
37 0 62 21 l32 27 0 118 c0 104 -2 120 -21 144 -26 33 -88 37 -119 6z"/>
<path d="M1049 994 c-21 -22 -24 -37 -28 -117 -4 -113 9 -161 50 -183 36 -18
71 -12 99 16 18 18 20 34 20 143 0 116 -1 125 -23 145 -33 31 -87 29 -118 -4z"/>
<path d="M1392 997 c-20 -21 -22 -34 -22 -145 0 -108 2 -124 20 -142 28 -28
63 -34 99 -16 41 22 54 70 50 183 -4 80 -7 95 -28 117 -32 34 -88 36 -119 3z"/>
<path d="M1731 994 c-19 -24 -21 -40 -21 -143 0 -104 2 -120 20 -139 27 -29
63 -37 96 -20 43 20 54 52 54 161 0 136 -17 167 -95 167 -24 0 -39 -7 -54 -26z"/>
<path d="M2075 995 c-24 -23 -25 -30 -25 -144 l0 -119 32 -27 c38 -32 81 -29
116 11 20 23 22 35 22 130 0 109 -13 155 -45 168 -35 13 -76 6 -100 -19z"/>
<path d="M2415 995 c-24 -23 -25 -30 -25 -139 0 -106 2 -117 24 -142 18 -21
32 -28 61 -28 29 0 43 7 61 28 22 25 24 36 24 142 0 109 -1 116 -25 139 -16
17 -35 25 -60 25 -25 0 -44 -8 -60 -25z"/>
</g>
</svg>
