<?xml version="1.0" standalone="no"?>
<!DOCTYPE svg PUBLIC "-//W3C//DTD SVG 20010904//EN"
 "http://www.w3.org/TR/2001/REC-SVG-20010904/DTD/svg10.dtd">
<svg version="1.0" xmlns="http://www.w3.org/2000/svg"
 width="512.000000pt" height="512.000000pt" viewBox="0 0 512.000000 512.000000"
 preserveAspectRatio="xMidYMid meet">

<g transform="translate(0.000000,512.000000) scale(0.100000,-0.100000)"
fill="#000000" stroke="none">
<path d="M895 5111 c-83 -21 -168 -90 -206 -167 -30 -62 -41 -167 -37 -340 3
-132 5 -155 22 -173 26 -29 86 -29 112 0 17 19 20 43 24 229 5 228 7 235 74
284 l27 21 1649 0 1649 0 28 -21 c15 -11 38 -36 50 -54 l23 -33 1 -2021 c0
-1538 3 -2029 12 -2056 23 -67 111 -67 134 0 15 43 18 3957 4 4058 -17 114
-76 198 -175 250 l-51 27 -1655 2 c-910 0 -1668 -2 -1685 -6z"/>
<path d="M987 4806 c-10 -8 -22 -29 -27 -47 -13 -46 -13 -2402 0 -2448 18 -65
-104 -60 1600 -60 1704 0 1582 -5 1600 60 13 46 13 2402 0 2448 -16 56 -29 60
-191 61 -133 0 -149 -2 -173 -21 -36 -28 -36 -80 0 -108 23 -18 41 -21 120
-21 l94 0 0 -1135 0 -1135 -1450 0 -1450 0 0 1135 0 1135 1218 0 c1212 0 1218
0 1240 20 14 14 22 33 22 55 0 22 -8 41 -22 55 -22 20 -27 20 -1292 20 -1054
-1 -1274 -3 -1289 -14z"/>
<path d="M683 4216 l-28 -24 0 -1964 c0 -1873 1 -1965 18 -2015 23 -66 94
-146 161 -181 l51 -27 1675 0 1675 0 51 27 c28 15 72 50 97 78 64 71 81 127
81 273 1 118 1 119 -27 143 -35 30 -59 30 -93 0 -27 -23 -28 -27 -34 -149 -5
-136 -13 -156 -74 -201 -26 -20 -42 -21 -333 -24 -336 -3 -322 -5 -323 58 -1
76 -62 165 -144 208 l-51 27 -803 3 c-532 2 -816 -1 -842 -8 -94 -25 -184
-120 -196 -206 -3 -21 -7 -49 -10 -62 l-5 -23 -309 3 c-294 3 -310 4 -336 24
-15 11 -37 33 -48 48 l-21 27 -5 1971 -5 1970 -28 24 c-35 30 -59 30 -94 0z
m2683 -3932 c39 -19 64 -59 64 -104 l0 -30 -870 0 -870 0 0 30 c0 45 24 85 62
103 30 15 113 17 806 17 696 0 777 -2 808 -16z"/>
<path d="M1584 3969 c-18 -20 -19 -42 -19 -430 l0 -408 23 -23 23 -23 409 0
409 0 23 23 23 23 0 408 c0 388 -1 410 -19 430 -19 21 -25 21 -436 21 -411 0
-417 0 -436 -21z m736 -434 l0 -305 -300 0 -300 0 0 305 0 305 300 0 300 0 0
-305z"/>
<path d="M2950 3967 c-285 -97 -395 -459 -212 -699 151 -198 438 -239 634 -90
240 183 240 541 0 724 -115 88 -281 113 -422 65z m276 -151 c112 -52 174 -151
174 -276 0 -176 -124 -300 -300 -300 -175 0 -300 125 -300 300 0 125 62 223
175 276 70 33 180 33 251 0z"/>
<path d="M1625 2054 c-83 -20 -209 -83 -280 -141 -118 -96 -216 -250 -249
-393 -20 -84 -20 -256 0 -340 47 -203 196 -387 389 -480 106 -52 187 -70 315
-70 128 0 209 18 315 70 193 93 342 277 389 480 20 84 20 256 0 340 -58 250
-270 466 -520 530 -93 24 -268 26 -359 4z m319 -149 c195 -51 360 -216 411
-411 19 -75 19 -213 0 -288 -51 -195 -216 -360 -411 -411 -75 -19 -213 -19
-288 0 -195 51 -360 216 -411 411 -19 75 -19 213 0 288 51 194 213 358 406
410 72 20 220 20 293 1z"/>
<path d="M1666 1766 c-45 -27 -86 -88 -86 -128 0 -35 -32 -68 -67 -68 -42 0
-106 -44 -133 -92 -20 -36 -24 -56 -24 -128 0 -75 3 -92 26 -131 28 -48 89
-89 132 -89 33 0 66 -33 66 -66 0 -43 41 -104 89 -132 39 -23 56 -26 131 -26
75 0 92 3 131 26 48 28 89 89 89 132 0 33 33 66 66 66 43 0 104 41 132 89 23
39 26 56 26 131 0 75 -3 92 -26 131 -28 48 -89 89 -132 89 -34 0 -66 33 -66
67 0 41 -44 106 -88 131 -33 18 -55 22 -133 22 -81 0 -99 -3 -133 -24z m204
-145 c5 -11 10 -29 10 -41 0 -60 90 -150 149 -150 48 0 61 -16 61 -80 0 -63
-13 -80 -60 -80 -62 0 -150 -90 -150 -153 0 -40 -33 -67 -80 -67 -47 0 -80 27
-80 67 0 63 -88 153 -150 153 -47 0 -60 17 -60 80 0 63 13 80 60 80 60 0 150
90 150 149 0 48 16 61 80 61 48 0 61 -4 70 -19z"/>
<path d="M3623 1926 c-92 -30 -167 -98 -209 -189 -24 -53 -26 -68 -22 -145 5
-105 33 -166 103 -231 71 -65 124 -85 225 -85 65 0 96 5 132 21 62 28 134 96
166 158 24 44 27 61 27 150 0 89 -3 106 -27 150 -32 62 -104 130 -166 158 -59
25 -171 32 -229 13z m172 -155 c79 -35 113 -102 102 -198 -5 -51 -29 -88 -77
-120 -109 -74 -263 -7 -277 120 -11 96 23 163 102 198 51 24 99 24 150 0z"/>
<path d="M3110 1301 c-92 -30 -172 -98 -212 -179 -19 -40 -23 -63 -23 -147 0
-92 2 -104 29 -153 62 -112 170 -176 296 -177 66 0 85 5 142 33 129 63 193
172 186 317 -4 94 -28 152 -88 214 -63 65 -131 94 -225 97 -44 2 -91 0 -105
-5z m157 -152 c34 -13 80 -55 99 -91 20 -39 18 -126 -5 -168 -10 -19 -37 -48
-60 -65 -35 -25 -52 -30 -101 -30 -49 0 -66 5 -101 30 -23 17 -50 46 -60 65
-23 42 -25 129 -5 168 18 35 64 78 96 91 34 13 102 13 137 0z"/>
</g>
</svg>
