<?xml version="1.0" standalone="no"?>
<!DOCTYPE svg PUBLIC "-//W3C//DTD SVG 20010904//EN"
 "http://www.w3.org/TR/2001/REC-SVG-20010904/DTD/svg10.dtd">
<svg version="1.0" xmlns="http://www.w3.org/2000/svg"
 width="512.000000pt" height="512.000000pt" viewBox="0 0 512.000000 512.000000"
 preserveAspectRatio="xMidYMid meet">

<g transform="translate(0.000000,512.000000) scale(0.100000,-0.100000)"
fill="#000000" stroke="none">
<path d="M2436 5105 c-170 -43 -318 -177 -378 -340 -26 -73 -35 -209 -19 -287
37 -178 188 -348 353 -396 l58 -17 0 -217 0 -218 -642 0 c-372 0 -673 -5 -713
-10 -86 -13 -211 -71 -277 -129 -60 -53 -122 -149 -149 -228 l-20 -62 -207 -3
c-204 -3 -208 -3 -264 -31 -70 -34 -131 -101 -158 -173 -19 -52 -20 -77 -20
-539 0 -471 1 -486 22 -542 29 -77 104 -152 181 -181 52 -20 78 -22 252 -22
l194 0 15 -52 c39 -132 150 -261 279 -322 97 -46 153 -56 312 -56 l135 0 0
-599 c0 -413 3 -607 11 -624 6 -13 23 -31 39 -40 26 -16 119 -17 1120 -17
1001 0 1094 1 1120 17 16 9 33 27 39 40 8 17 11 212 11 624 l0 599 138 0 c85
0 161 6 200 15 178 42 323 176 384 354 l21 61 193 0 c173 0 199 2 251 21 68
26 138 92 173 164 l25 50 0 510 0 510 -25 50 c-31 64 -92 124 -155 156 -47 23
-61 24 -257 27 l-207 3 -17 52 c-53 164 -176 288 -346 349 l-63 23 -687 3
-688 3 0 217 0 217 58 17 c165 48 316 218 353 396 16 78 7 214 -19 285 -55
153 -180 275 -333 328 -82 28 -213 34 -293 14z m237 -221 c64 -21 148 -99 178
-166 35 -80 34 -193 -4 -270 -30 -62 -83 -115 -149 -150 -36 -19 -58 -23 -138
-23 -80 0 -102 4 -138 23 -66 35 -119 88 -149 150 -38 76 -40 191 -5 267 72
157 235 225 405 169z m1391 -1495 c69 -25 139 -92 172 -162 l24 -53 0 -719 1
-720 -31 -61 c-35 -72 -82 -116 -160 -153 l-55 -26 -1455 0 -1455 0 -67 33
c-76 37 -120 82 -157 162 l-26 55 0 710 c0 662 1 713 18 750 42 94 108 158
195 190 31 11 284 14 1489 14 1443 1 1453 1 1507 -20z m-3424 -934 l0 -535
-170 0 c-189 0 -218 7 -245 60 -23 44 -22 907 1 951 25 50 60 58 247 59 l167
0 0 -535z m4205 519 c65 -30 65 -33 65 -518 0 -480 -1 -491 -59 -520 -24 -13
-65 -16 -201 -16 l-170 0 0 535 0 535 166 0 c130 0 173 -3 199 -16z m-1325
-1909 l0 -215 -960 0 -960 0 0 215 0 215 960 0 960 0 0 -215z m0 -640 l0 -215
-960 0 -960 0 0 215 0 215 960 0 960 0 0 -215z"/>
<path d="M1419 2977 c-102 -29 -171 -88 -218 -187 -25 -54 -26 -61 -29 -300
-5 -334 9 -393 110 -487 81 -74 103 -78 433 -78 l290 0 63 34 c70 38 100 69
140 145 l27 51 0 295 c0 289 0 296 -24 348 -29 65 -112 143 -178 168 -41 15
-87 18 -308 21 -187 2 -273 -1 -306 -10z m560 -223 c45 -32 51 -67 51 -305 0
-330 11 -319 -319 -319 -238 0 -273 6 -305 51 -14 20 -16 59 -16 277 l0 254
29 29 29 29 254 0 c218 0 257 -2 277 -16z"/>
<path d="M3124 2976 c-64 -16 -111 -44 -161 -99 -74 -80 -78 -103 -78 -432 l0
-290 34 -63 c38 -70 69 -100 145 -140 l51 -27 295 0 c289 0 296 0 348 24 68
31 144 113 169 183 16 46 18 87 18 328 l0 275 -26 55 c-49 103 -113 158 -216
185 -73 19 -501 20 -579 1z m577 -235 l29 -29 0 -254 c0 -218 -2 -257 -16
-277 -32 -45 -67 -51 -305 -51 -330 0 -319 -11 -319 319 0 238 6 273 51 305
20 14 59 16 277 16 l254 0 29 -29z"/>
</g>
</svg>
