<?xml version="1.0" standalone="no"?>
<!DOCTYPE svg PUBLIC "-//W3C//DTD SVG 20010904//EN"
 "http://www.w3.org/TR/2001/REC-SVG-20010904/DTD/svg10.dtd">
<svg version="1.0" xmlns="http://www.w3.org/2000/svg"
 width="512.000000pt" height="512.000000pt" viewBox="0 0 512.000000 512.000000"
 preserveAspectRatio="xMidYMid meet">

<g transform="translate(0.000000,512.000000) scale(0.100000,-0.100000)"
fill="#000000" stroke="none">
<path d="M1564 5086 c-43 -43 -44 -79 -5 -132 16 -21 191 -201 390 -399 l361
-360 -1088 -5 -1088 -5 -37 -25 c-21 -14 -50 -43 -65 -64 l-27 -39 -3 -1731
c-2 -1211 0 -1742 8 -1768 14 -48 53 -94 101 -118 32 -17 59 -20 162 -20 l124
0 97 -190 c56 -110 108 -198 123 -210 24 -19 39 -20 282 -20 197 1 262 4 281
14 17 10 55 73 125 207 l100 194 1155 0 1155 0 98 -191 c73 -142 105 -194 126
-207 25 -15 62 -17 284 -17 241 0 256 1 280 20 15 12 67 100 123 210 l97 190
124 0 c103 0 130 3 162 20 48 24 87 70 101 118 8 26 10 557 8 1768 l-3 1730
-25 37 c-14 21 -43 50 -64 65 l-39 27 -1089 5 -1088 5 361 360 c199 198 374
378 390 399 39 53 38 89 -5 132 -38 38 -76 44 -116 18 -14 -9 -217 -208 -452
-443 l-428 -426 -427 426 c-236 235 -439 434 -453 443 -40 26 -78 20 -116 -18z
m3356 -2781 l0 -1685 -2360 0 -2360 0 0 1685 0 1685 2360 0 2360 0 0 -1685z
m-3740 -1888 c0 -2 -25 -52 -56 -110 l-55 -107 -167 0 -167 0 -53 103 c-28 56
-52 105 -52 110 0 4 124 7 275 7 151 0 275 -1 275 -3z m3310 -4 c0 -5 -24 -54
-52 -110 l-53 -103 -167 0 -168 0 -52 103 c-29 56 -54 105 -56 110 -2 4 120 7
272 7 152 0 276 -3 276 -7z"/>
<path d="M803 3755 c-179 -48 -334 -201 -378 -372 -21 -81 -22 -2040 -1 -2118
44 -167 170 -302 344 -368 l57 -22 1385 -3 c972 -2 1404 0 1450 8 189 32 367
194 415 377 13 49 15 207 15 1069 0 981 -1 1014 -20 1076 -53 171 -215 321
-388 357 -37 8 -459 11 -1440 10 -1159 0 -1396 -3 -1439 -14z m964 -953 l-767
-768 0 -46 c0 -70 48 -110 120 -100 18 3 274 252 866 843 l840 840 415 -3
c399 -3 416 -4 460 -24 64 -30 125 -88 157 -148 l27 -51 3 -1007 c2 -998 2
-1007 -18 -1062 -27 -70 -93 -139 -168 -174 l-57 -27 -1395 0 -1395 0 -57 27
c-66 31 -128 91 -160 156 l-23 47 -3 999 c-2 887 -1 1005 13 1047 32 95 104
168 198 200 48 17 112 18 882 19 l830 0 -768 -768z"/>
<path d="M2675 2811 c-16 -10 -238 -227 -492 -482 -310 -311 -464 -473 -469
-492 -8 -33 11 -82 40 -102 11 -8 39 -15 61 -15 39 0 46 6 522 483 468 467
483 483 483 520 0 49 -13 73 -50 92 -38 20 -59 19 -95 -4z"/>
<path d="M1418 1554 c-35 -18 -48 -43 -48 -89 0 -65 69 -110 131 -85 39 16 59
46 59 88 0 44 -14 68 -50 87 -36 19 -57 18 -92 -1z"/>
<path d="M4247 3625 c-62 -63 -26 -156 67 -170 23 -4 124 -5 223 -3 165 3 184
5 209 24 52 38 56 103 9 150 -24 24 -24 24 -253 24 l-229 0 -26 -25z"/>
<path d="M4273 3236 c-64 -29 -76 -111 -24 -158 l31 -28 223 0 c195 0 225 3
243 18 52 41 55 109 8 153 -25 24 -29 24 -237 26 -166 2 -219 0 -244 -11z"/>
<path d="M4249 2811 c-33 -33 -40 -91 -14 -127 28 -41 60 -45 283 -42 206 3
211 4 236 27 31 30 42 73 26 112 -23 54 -47 59 -285 59 l-217 0 -29 -29z"/>
<path d="M4405 2350 c-167 -66 -240 -282 -146 -433 56 -91 146 -140 256 -140
121 0 215 59 267 168 70 148 7 325 -141 397 -64 31 -168 35 -236 8z m176 -209
c76 -77 -5 -199 -104 -157 -43 17 -57 41 -57 94 0 33 6 45 31 66 43 36 91 35
130 -3z"/>
<path d="M4405 1450 c-167 -66 -240 -282 -146 -433 56 -91 146 -140 256 -140
121 0 215 59 267 168 70 148 7 325 -141 397 -64 31 -168 35 -236 8z m176 -209
c76 -77 -5 -199 -104 -157 -43 17 -57 41 -57 94 0 33 6 45 31 66 43 36 91 35
130 -3z"/>
</g>
</svg>
