<?xml version="1.0" standalone="no"?>
<!DOCTYPE svg PUBLIC "-//W3C//DTD SVG 20010904//EN"
 "http://www.w3.org/TR/2001/REC-SVG-20010904/DTD/svg10.dtd">
<svg version="1.0" xmlns="http://www.w3.org/2000/svg"
 width="512.000000pt" height="512.000000pt" viewBox="0 0 512.000000 512.000000"
 preserveAspectRatio="xMidYMid meet">

<g transform="translate(0.000000,512.000000) scale(0.100000,-0.100000)"
fill="#000000" stroke="none">
<path d="M3590 5069 c-49 -19 -90 -56 -348 -313 -263 -262 -292 -294 -292
-323 0 -43 30 -73 73 -73 29 0 59 27 297 266 146 146 284 277 308 291 36 21
52 25 98 21 112 -9 183 -110 154 -219 -10 -40 -70 -102 -608 -641 l-597 -598
-250 0 -250 0 338 338 c359 360 360 361 318 413 -13 16 -29 23 -55 23 -35 0
-55 -18 -424 -387 l-387 -386 -660 -4 c-603 -3 -666 -5 -725 -21 -220 -62
-397 -205 -494 -398 -87 -174 -81 -82 -81 -1308 0 -1020 1 -1089 18 -1149 73
-257 254 -447 512 -538 l80 -28 1432 -3 c1426 -2 1433 -2 1453 18 30 30 27 83
-6 109 l-27 21 -1388 0 c-981 0 -1404 3 -1441 11 -176 37 -341 167 -424 334
-65 133 -64 102 -64 1230 0 841 3 1032 14 1087 46 215 218 396 441 465 57 17
143 18 1955 18 1812 0 1898 -1 1955 -18 198 -61 344 -197 419 -391 l31 -81 3
-1047 c3 -1162 4 -1128 -62 -1263 -65 -131 -166 -229 -298 -289 -113 -52 -148
-56 -502 -56 -312 0 -324 -1 -350 -21 -33 -26 -36 -79 -5 -110 20 -20 28 -20
387 -17 l367 3 80 28 c245 86 419 261 499 500 35 104 37 170 34 1232 -4 1183
3 1089 -84 1263 -96 192 -274 336 -494 398 -60 17 -125 18 -859 22 l-795 3
551 552 c618 620 597 594 597 737 1 179 -126 309 -309 317 -64 2 -91 -1 -135
-18z"/>
<path d="M1360 2973 c-174 -30 -385 -118 -445 -185 -73 -80 -69 -195 10 -274
25 -24 59 -47 81 -53 55 -15 1095 -15 1149 0 79 22 145 116 145 204 0 41 -33
109 -67 142 -62 58 -274 138 -442 167 -117 20 -315 19 -431 -1z m501 -166 c99
-26 239 -85 271 -114 24 -21 23 -48 -2 -73 -19 -19 -33 -20 -550 -20 -517 0
-531 1 -550 20 -25 25 -26 52 -2 72 48 43 223 109 354 134 117 22 359 12 479
-19z"/>
<path d="M3355 2890 c-57 -17 -139 -75 -176 -124 -64 -84 -71 -123 -67 -378 3
-222 3 -223 31 -276 37 -70 97 -128 166 -161 l56 -26 495 0 495 0 55 28 c75
39 133 98 167 171 27 60 28 66 31 264 3 183 1 210 -17 272 -27 86 -95 166
-179 207 l-57 28 -485 2 c-267 1 -498 -2 -515 -7z m993 -159 c47 -24 77 -56
97 -103 12 -29 15 -78 15 -218 0 -193 -7 -228 -53 -279 -21 -23 -91 -60 -113
-61 -8 0 -13 44 -16 138 -3 126 -6 142 -31 194 -96 196 -363 200 -471 8 -30
-53 -31 -60 -35 -197 l-3 -143 -162 0 c-134 0 -168 3 -201 19 -50 23 -102 81
-110 123 -4 18 -5 119 -3 224 3 187 3 191 30 231 15 23 44 49 70 62 42 21 53
21 496 21 425 0 455 -1 490 -19z m-279 -347 c49 -29 55 -50 59 -186 l4 -128
-121 0 -121 0 0 116 c0 129 11 168 58 196 34 22 86 23 121 2z"/>
<path d="M551 2279 c-80 -16 -154 -81 -180 -158 -6 -19 -11 -59 -11 -90 0 -77
44 -153 114 -196 l49 -30 1044 -3 1044 -2 49 21 c89 38 143 121 143 219 0 96
-57 184 -143 224 -45 21 -54 21 -1055 23 -555 0 -1030 -3 -1054 -8z m2045
-154 c49 -20 70 -71 50 -120 -9 -21 -26 -39 -41 -45 -40 -15 -2020 -14 -2048
2 -33 17 -46 39 -47 78 0 45 22 77 63 89 19 5 442 10 1010 10 837 1 983 -1
1013 -14z"/>
<path d="M3695 1721 c-213 -61 -385 -245 -431 -462 -49 -228 49 -477 239 -613
150 -106 328 -141 501 -96 295 75 488 354 455 655 -27 247 -211 459 -454 520
-80 20 -233 18 -310 -4z m357 -173 c184 -91 280 -269 256 -476 -15 -136 -124
-286 -250 -345 -246 -116 -532 -1 -629 253 -73 192 6 428 181 540 83 53 150
70 266 67 93 -2 106 -5 176 -39z"/>
<path d="M3723 1410 c-115 -58 -168 -145 -168 -275 0 -98 28 -159 103 -227
178 -159 466 -56 501 180 8 56 -4 143 -25 184 -24 46 -83 107 -132 136 -38 21
-61 27 -131 30 -80 3 -90 2 -148 -28z m217 -143 c93 -62 97 -195 8 -259 -44
-31 -134 -33 -174 -2 -71 53 -91 124 -55 198 29 59 71 86 137 86 37 0 61 -6
84 -23z"/>
<path d="M495 1606 c-54 -25 -100 -71 -122 -123 -20 -48 -16 -140 8 -193 27
-60 54 -88 114 -116 l50 -24 1038 0 c1034 0 1037 0 1082 21 158 74 187 289 54
402 -21 19 -56 39 -78 45 -28 9 -315 12 -1067 12 l-1029 0 -50 -24z m2117
-137 c11 -6 26 -26 34 -45 12 -29 12 -39 0 -68 -8 -19 -23 -39 -34 -45 -15 -8
-328 -11 -1037 -11 l-1016 0 -24 25 c-19 18 -25 35 -25 65 0 30 6 47 25 65
l24 25 1016 0 c709 0 1022 -3 1037 -11z"/>
<path d="M985 961 c-58 -26 -101 -80 -115 -143 -32 -142 53 -226 313 -313 311
-103 669 -79 957 65 83 42 121 77 144 132 41 96 -9 214 -109 259 -37 17 -80
19 -595 19 -515 0 -558 -2 -595 -19z m1147 -148 c25 -23 22 -58 -7 -81 -14
-11 -60 -35 -102 -52 -295 -123 -635 -117 -918 15 -88 42 -108 68 -81 110 l16
25 537 0 c485 0 538 -2 555 -17z"/>
</g>
</svg>
